<svg width="13" height="15" viewBox="0 0 13 15" fill="none" xmlns="http://www.w3.org/2000/svg">
<path d="M12.035 15.0002C11.9082 15.0002 11.7827 14.9715 11.6655 14.9155C11.5484 14.8596 11.4419 14.7776 11.3523 14.6742L0.29467 1.91479C0.202482 1.81205 0.128949 1.68916 0.0783625 1.55329C0.0277762 1.41741 0.00115013 1.27127 3.64443e-05 1.12339C-0.00107724 0.975511 0.0233441 0.828859 0.0718763 0.691988C0.120408 0.555117 0.192079 0.430768 0.282706 0.326199C0.373334 0.22163 0.481103 0.138933 0.599725 0.0829348C0.718347 0.0269364 0.845447 -0.00124297 0.973608 4.20493e-05C1.10177 0.00132707 1.22843 0.0320504 1.34619 0.0904189C1.46395 0.148787 1.57045 0.233633 1.65949 0.340004L12.7177 13.0994C12.8526 13.2552 12.9444 13.4536 12.9815 13.6696C13.0187 13.8856 12.9995 14.1094 12.9265 14.3129C12.8534 14.5163 12.7297 14.6901 12.571 14.8125C12.4124 14.9348 12.2258 15.0001 12.035 15.0002Z" fill="#FF4B25"/>
<path d="M0.97658 14.9999C0.785801 14.9997 0.599349 14.9343 0.440776 14.8119C0.282202 14.6895 0.158618 14.5156 0.0856327 14.3123C0.0126473 14.1089 -0.00646546 13.8851 0.0307077 13.6692C0.0678808 13.4533 0.159673 13.2549 0.29449 13.0992L11.3521 0.339748C11.5331 0.13082 11.7786 0.0134058 12.0346 0.0133362C12.2906 0.0132666 12.5361 0.130547 12.7172 0.339376C12.8983 0.548206 13 0.831479 13.0001 1.12688C13.0002 1.42228 12.8985 1.70561 12.7175 1.91454L1.65931 14.674C1.56964 14.7774 1.46319 14.8594 1.34605 14.9153C1.2289 14.9712 1.10336 15 0.97658 14.9999Z" fill="#FF4B25"/>
</svg>
