<svg width="73" height="21" viewBox="0 0 73 21" fill="none" xmlns="http://www.w3.org/2000/svg">
<path d="M3.18512 1.09185V9.40997H11.6747V10.7008H3.18512V21H0V0H13.353V1.09185H3.18512Z" fill="white"/>
<path d="M11.3268 21L20.8258 0L30.5649 21H27.057L25.2317 17.0408H14.5419L12.746 21H11.3268ZM15.0344 15.9532H24.7123L19.8164 5.39861L15.0344 15.9532Z" fill="white"/>
<path d="M36.5003 2.46698C36.4975 2.8216 36.3886 3.16744 36.1873 3.46076C35.9861 3.75408 35.7015 3.9817 35.3696 4.11486C35.0377 4.24801 34.6734 4.28071 34.3227 4.20882C33.972 4.13692 33.6508 3.96367 33.3995 3.71097C33.1483 3.45826 32.9783 3.13745 32.9112 2.78911C32.8441 2.44077 32.8828 2.08053 33.0224 1.75396C33.162 1.42739 33.3962 1.14914 33.6955 0.954415C33.9948 0.759686 34.3457 0.657217 34.7038 0.659966C34.9417 0.661152 35.1771 0.708906 35.3964 0.800481C35.6157 0.892057 35.8145 1.02565 35.9814 1.19358C36.1484 1.3615 36.2802 1.56045 36.3692 1.77899C36.4583 1.99753 36.5028 2.23134 36.5003 2.46698ZM36.1236 21H33.2264V6.62695H36.1236V21Z" fill="white"/>
<path d="M36.1126 6.61664V7.72426H29.8036V6.61664H36.1126Z" fill="white"/>
<path d="M54.7792 15.5492C54.7792 16.7254 53.9101 21 46.5518 21H38.8169V0H46.5518C53.0697 0 53.8519 4.56153 53.8519 5.47929C53.8519 8.37695 51.9114 9.69688 50.1731 10.2992C52.2587 10.7869 54.7792 12.0777 54.7792 15.5492ZM46.0881 1.0039H42.0038V9.66776H46.697C48.4347 9.66776 50.6943 8.37695 50.6943 5.62305C50.6943 2.66898 48.7532 1.0039 46.0881 1.0039ZM51.2738 15.4073C51.2738 11.0756 46.6676 10.6759 45.7696 10.6759H42.0038V19.8808H46.5518C46.5518 19.8808 51.2738 19.7662 51.2738 15.4073Z" fill="white"/>
<path d="M62.6612 11.533C61.792 11.5615 60.981 11.5615 60.2858 11.5615V21H57.1007V6.71962e-06H60.2858C63.6174 6.71962e-06 70.3674 -0.0861286 70.3674 5.88389C70.3674 9.24013 68.3105 10.6759 65.9351 11.277L73 21H69.4369L62.6612 11.533ZM63.7025 10.3569C64.2538 10.2707 64.805 10.0985 65.2669 9.81093C65.4995 9.64291 65.713 9.45052 65.9039 9.2371C66.1205 8.99904 66.2967 8.72783 66.4258 8.43398C66.5941 8.08595 66.7203 7.71946 66.8019 7.34212C66.8849 6.85888 66.9239 6.3692 66.9182 5.87904C66.7731 1.31751 63.21 1.00148 62.5693 1.00148H60.2828V10.44H62.5712C62.9499 10.4407 63.3281 10.4129 63.7025 10.3569Z" fill="white"/>
</svg>
