<svg width="19" height="19" viewBox="0 0 19 19" fill="none" xmlns="http://www.w3.org/2000/svg">
<path d="M16.925 18.781H2.075C1.0625 18.781 0.21875 17.9372 0.21875 16.9247V3.29814C0.21875 2.28564 0.89375 1.44189 1.77969 1.44189H2.70781V2.66533H1.77969C1.65313 2.66533 1.48438 2.91845 1.48438 3.29814V16.9247C1.48438 17.2622 1.77969 17.5575 2.11719 17.5575H16.9672C17.3047 17.5575 17.6 17.2622 17.6 16.9247V3.29814C17.6 2.91845 17.3891 2.66533 17.3047 2.66533H16.3766V1.44189H17.3047C18.1484 1.44189 18.8656 2.28564 18.8656 3.29814V16.9247C18.7812 17.9372 17.9375 18.781 16.925 18.781Z" fill="#1D4354"/>
<path d="M4.56445 3.93095C4.22695 3.93095 3.93164 3.63564 3.93164 3.29814V0.809082C3.93164 0.471582 4.22695 0.17627 4.56445 0.17627C4.90195 0.17627 5.19727 0.471582 5.19727 0.809082V3.29814C5.15508 3.63564 4.90195 3.93095 4.56445 3.93095Z" fill="#1D4354"/>
<path d="M14.4355 3.93095C14.098 3.93095 13.8027 3.63564 13.8027 3.29814V0.809082C13.8027 0.471582 14.098 0.17627 14.4355 0.17627C14.773 0.17627 15.0684 0.471582 15.0684 0.809082V3.29814C15.0684 3.63564 14.773 3.93095 14.4355 3.93095Z" fill="#1D4354"/>
<path d="M6.41992 1.44189H12.5793V2.70752H6.41992V1.44189Z" fill="#1D4354"/>
<path d="M1.44238 5.1543H17.558V6.41992H1.44238V5.1543Z" fill="#1D4354"/>
<path d="M15.0684 7.64355H16.2918V8.86699H15.0684V7.64355Z" fill="#1D4354"/>
<path d="M12.5801 7.64355H13.8457V8.86699H12.5801V7.64355Z" fill="#1D4354"/>
<path d="M10.1328 7.64355H11.3563V8.86699H10.1328V7.64355Z" fill="#1D4354"/>
<path d="M7.64355 7.64355H8.86699V8.86699H7.64355V7.64355Z" fill="#1D4354"/>
<path d="M5.1543 7.64355H6.41992V8.86699H5.1543V7.64355Z" fill="#1D4354"/>
<path d="M15.0684 10.1323H16.2918V11.3558H15.0684V10.1323Z" fill="#1D4354"/>
<path d="M12.5801 10.1323H13.8457V11.3558H12.5801V10.1323Z" fill="#1D4354"/>
<path d="M10.1328 10.1323H11.3563V11.3558H10.1328V10.1323Z" fill="#1D4354"/>
<path d="M7.64355 10.1323H8.86699V11.3558H7.64355V10.1323Z" fill="#1D4354"/>
<path d="M5.1543 10.1323H6.41992V11.3558H5.1543V10.1323Z" fill="#1D4354"/>
<path d="M2.70801 10.1323H3.93145V11.3558H2.70801V10.1323Z" fill="#1D4354"/>
<path d="M15.0684 12.5796H16.2918V13.8452H15.0684V12.5796Z" fill="#1D4354"/>
<path d="M12.5801 12.5796H13.8457V13.8452H12.5801V12.5796Z" fill="#1D4354"/>
<path d="M10.1328 12.5796H11.3563V13.8452H10.1328V12.5796Z" fill="#1D4354"/>
<path d="M7.64355 12.5796H8.86699V13.8452H7.64355V12.5796Z" fill="#1D4354"/>
<path d="M5.1543 12.5796H6.41992V13.8452H5.1543V12.5796Z" fill="#1D4354"/>
<path d="M2.70801 12.5796H3.93145V13.8452H2.70801V12.5796Z" fill="#1D4354"/>
<path d="M12.5801 15.0684H13.8457V16.2918H12.5801V15.0684Z" fill="#1D4354"/>
<path d="M10.1328 15.0684H11.3563V16.2918H10.1328V15.0684Z" fill="#1D4354"/>
<path d="M7.64355 15.0684H8.86699V16.2918H7.64355V15.0684Z" fill="#1D4354"/>
<path d="M5.1543 15.0684H6.41992V16.2918H5.1543V15.0684Z" fill="#1D4354"/>
<path d="M2.70801 15.0684H3.93145V16.2918H2.70801V15.0684Z" fill="#1D4354"/>
</svg>
