<svg width="81" height="38" viewBox="0 0 81 38" fill="none" xmlns="http://www.w3.org/2000/svg">
<path d="M16.3096 17.1106C13.9473 15.9855 10.989 14.5702 9.15865 12.6879C7.56954 11.0391 6.92397 9.42571 6.92397 7.11174C6.92397 3.75755 8.96001 1.1676 11.2231 0C8.44923 0.318436 6.05847 1.1959 4.34876 2.54749C1.8445 4.45103 0.581726 7.09759 0.581726 10.4306C0.581726 13.0347 1.51107 15.2354 3.49745 17.3442C5.21426 19.1486 7.79656 20.5922 10.5278 22.1207L11.3721 22.5948C14.4439 24.279 17.0971 25.8146 18.4024 27.5836C19.2254 28.7442 19.5659 29.7985 19.5659 31.136C19.5659 34.1151 17.693 36.606 14.5928 37.8585C17.7923 37.5118 20.552 36.4999 22.5242 34.9289C24.766 33.0891 25.9578 30.6053 25.9578 27.7676C25.9649 22.4391 21.9637 19.9907 16.3096 17.1106Z" fill="white"/>
<path d="M0 28.546C0.0283769 28.7654 0.0567539 28.9918 0.0780366 29.2112C0.432748 32.1479 0.766177 34.9359 1.15636 36.5564C3.66062 37.4481 7.61921 37.9859 11.8899 38C9.58431 37.2924 7.2574 35.9337 4.95177 33.9594C3.47617 32.7069 1.56073 30.86 0 28.546Z" fill="white"/>
<path d="M76.263 0.311386C74.7803 0.325539 73.2408 0.339692 71.822 0.339692C71.3963 0.339692 70.9423 0.339692 70.467 0.332616L48.3542 37.6675L57.6619 37.6321L80.2073 0.283081C79.3206 0.290157 77.2491 0.297234 76.263 0.311386Z" fill="white"/>
<path d="M65.5152 37.6675H77.3271L79.0794 27.0246C79.0865 27.0246 73.3189 35.5304 65.5152 37.6675Z" fill="white"/>
<path d="M49.4184 15.5327C56.2856 1.52855 60.2087 0.283112 60.2087 0.283112H47.0702C47.0702 0.283112 52.7881 3.61608 49.4184 15.5327Z" fill="white"/>
<path d="M36.4998 12.8295C31.9453 2.92259 34.9461 0.721846 35.9393 0.283112H20.6158H19.4169C23.2123 0.283112 25.298 5.78144 25.298 5.78144L34.8397 27.1237C36.3721 30.5133 38.3372 34.8865 39.5503 37.6604V37.6675L44.4098 29.4589C43.6933 28.0366 37.195 14.3721 36.9042 13.7353C36.7765 13.4381 36.6346 13.1338 36.4998 12.8295Z" fill="white"/>
</svg>
