<svg width="268" height="178" viewBox="0 0 268 178" fill="none" xmlns="http://www.w3.org/2000/svg">
<path d="M0.413154 77.1427C10.1088 72.4253 20.1961 68.5471 30.563 65.5824C33.1734 64.8366 35.8397 64.1281 38.5619 63.8484C41.3774 63.5687 44.1742 63.867 46.9524 64.3705C52.3037 65.34 57.5804 66.7571 62.7825 68.342C68.6931 70.1506 74.5105 72.2202 80.3093 74.2899C80.6449 74.4018 80.7941 73.8797 80.4585 73.7492C69.8678 69.9828 59.2026 66.1977 48.1457 64.0349C45.5727 63.5314 42.9436 63.1212 40.3146 63.1958C37.6483 63.2704 35.0193 63.8111 32.4648 64.4823C27.2254 65.8621 22.042 67.5775 16.9517 69.4607C11.2276 71.5863 5.63391 73.9916 0.152116 76.6579C-0.183504 76.807 0.0961796 77.2918 0.413154 77.1427Z" fill="#E8E8E8"/>
<path d="M53.0306 65.433C60.5634 63.4007 68.264 62.0396 75.9833 60.8835C79.787 60.3242 83.5907 59.8021 87.413 59.28C91.3286 58.7579 95.2628 58.2732 99.2343 58.2359C113.424 58.124 126.923 63.1956 140.497 66.5891C148.03 68.4723 155.73 69.8707 163.524 69.6656C163.878 69.6656 163.878 69.1062 163.524 69.1062C149.204 69.4791 135.593 64.4635 121.907 60.9768C115.214 59.28 108.408 57.9002 101.49 57.6765C93.9203 57.4528 86.3502 58.8139 78.8733 59.8767C70.1286 61.1259 61.4211 62.5616 52.8814 64.8737C52.5458 65.0042 52.695 65.5449 53.0306 65.433Z" fill="#E8E8E8"/>
<path d="M140.385 74.1592C147.937 74.644 155.544 74.2524 163.002 72.9286C170.442 71.6234 177.807 68.7707 185.47 69.33C185.824 69.3487 185.824 68.7893 185.47 68.7707C177.993 68.2299 170.815 70.9149 163.561 72.2574C155.917 73.6744 148.123 74.1033 140.385 73.5998C140.031 73.5812 140.031 74.1406 140.385 74.1592Z" fill="#E8E8E8"/>
<path d="M30.9546 66.6638C29.3324 68.8826 29.9291 71.9218 31.5326 73.9728C33.4531 76.434 36.6415 77.4782 39.4943 78.4477C41.1724 79.0257 42.8691 79.6038 44.3794 80.5174C45.1252 80.9649 45.8151 81.4683 46.4304 82.0836C46.8593 82.5311 47.2695 82.9972 47.1762 83.6871C47.1016 84.2279 46.4863 84.7313 46.0948 85.0669C44.6404 86.3534 43.1674 87.6027 41.6944 88.8706C40.6503 89.7656 39.3824 90.7724 39.2519 92.2454C39.0281 94.8185 42.1606 95.9373 44.1556 96.422C47.9966 97.373 51.8936 98.0815 55.8091 98.6409C63.5657 99.7409 71.3968 100.226 79.2279 100.599C87.2269 100.972 95.2444 101.233 103.243 101.922C105.183 102.09 107.14 102.277 109.079 102.519C110.422 102.687 112.976 103.209 112.715 105.055C112.492 106.584 110.291 107.535 109.191 108.411C107.812 109.493 106.525 110.723 105.369 112.047C104.269 113.315 103.281 114.676 102.423 116.13C101.789 117.212 101.136 118.573 101.491 119.859C101.826 121.034 102.945 121.482 104.045 121.594C105.928 121.78 107.886 121.649 109.769 121.594C117.675 121.332 125.525 120.195 133.393 119.598C137.346 119.3 141.318 119.151 145.289 119.319C148.962 119.487 152.859 119.766 156.365 120.904C157.782 121.351 159.273 122.041 160.261 123.197C161.473 124.614 161.399 126.441 160.411 127.97C159.46 129.443 157.968 130.562 156.626 131.681C155.041 132.986 153.419 134.254 151.759 135.466C150.212 136.585 148.645 137.666 147.042 138.691C146.743 138.878 147.023 139.363 147.321 139.176C150.547 137.088 153.642 134.832 156.607 132.408C158.77 130.637 162.163 128.287 161.697 125.043C161.324 122.526 158.807 121.146 156.626 120.419C153.251 119.3 149.484 119.002 145.979 118.815C137.999 118.386 130.037 119.319 122.113 120.121C118.178 120.512 114.244 120.885 110.291 121.034C108.352 121.109 106.376 121.183 104.437 121.071C103.486 121.016 102.423 120.81 102.05 119.804C101.714 118.871 102.162 117.771 102.591 116.932C104.25 113.781 106.767 111.003 109.546 108.821C111.037 107.647 115.027 105.465 112.492 103.19C111.653 102.445 110.441 102.146 109.34 101.997C107.364 101.736 105.369 101.55 103.393 101.382C99.4397 101.027 95.4682 100.804 91.4967 100.599C83.4418 100.188 75.3683 99.9647 67.3134 99.3307C59.4264 98.7154 51.3715 97.8391 43.7082 95.7321C42.3843 95.3592 40.6503 94.7439 39.9977 93.4015C39.0841 91.4996 41.2283 89.9893 42.4776 88.9079C43.9319 87.64 45.5354 86.4467 46.8965 85.0669C47.7915 84.1533 48.0339 83.1278 47.2135 82.0836C45.2184 79.6038 41.825 78.6342 38.9349 77.646C35.7279 76.5459 32.0547 75.0729 30.8614 71.5675C30.3207 69.9827 30.4139 68.2859 31.4207 66.9061C31.6445 66.6451 31.1597 66.3654 30.9546 66.6638Z" fill="#E8E8E8"/>
<path d="M41.3588 63.755C39.7366 65.9738 40.3333 69.013 41.9368 71.064C43.8573 73.5253 47.0457 74.5694 49.8984 75.539C51.5765 76.117 53.2733 76.695 54.7836 77.6086C55.5294 78.0561 56.2193 78.5595 56.8346 79.1749C57.2634 79.6223 57.6736 80.0885 57.5804 80.7784C57.5058 81.3191 56.8905 81.8225 56.499 82.1581C55.0446 83.4447 53.5716 84.6939 52.0986 85.9618C51.0545 86.8568 49.7866 87.8637 49.656 89.3367C49.4323 91.9098 52.5648 93.0285 54.5598 93.5133C58.4008 94.4642 62.2977 95.1727 66.2133 95.7321C73.9698 96.8322 81.801 97.317 89.6321 97.6899C97.631 98.0628 105.649 98.3238 113.648 99.0137C115.587 99.1815 117.544 99.368 119.484 99.6104C120.826 99.7782 123.381 100.3 123.119 102.146C122.896 103.675 120.696 104.626 119.595 105.502C118.216 106.584 116.929 107.814 115.773 109.138C114.673 110.406 113.685 111.767 112.827 113.222C112.193 114.303 111.541 115.664 111.895 116.951C112.23 118.125 113.349 118.573 114.449 118.685C116.333 118.871 118.29 118.741 120.173 118.685C128.079 118.424 135.929 117.286 143.797 116.69C147.75 116.391 151.722 116.242 155.693 116.41C159.366 116.578 163.263 116.858 166.769 117.995C168.186 118.442 169.677 119.132 170.666 120.288C171.878 121.705 171.803 123.533 170.815 125.062C169.864 126.535 168.372 127.653 167.03 128.772C165.445 130.077 163.823 131.345 162.163 132.557C160.616 133.676 159.049 134.757 157.446 135.783C157.148 135.969 157.427 136.454 157.726 136.268C160.951 134.179 164.046 131.923 167.011 129.499C169.174 127.728 172.567 125.379 172.101 122.134C171.728 119.617 169.211 118.237 167.03 117.51C163.655 116.391 159.888 116.093 156.383 115.907C148.403 115.478 140.441 116.41 132.517 117.212C128.583 117.603 124.648 117.976 120.696 118.125C118.756 118.2 116.78 118.275 114.841 118.163C113.89 118.107 112.827 117.902 112.454 116.895C112.119 115.963 112.566 114.862 112.995 114.023C114.654 110.872 117.172 108.094 119.95 105.913C121.441 104.738 125.432 102.556 122.896 100.282C122.057 99.5358 120.845 99.2375 119.745 99.0883C117.768 98.8273 115.773 98.6408 113.797 98.473C109.844 98.1187 105.872 97.895 101.901 97.6899C93.846 97.2797 85.7725 97.0559 77.7176 96.422C69.8305 95.8067 61.7757 94.9303 54.1123 92.8234C52.7885 92.4505 51.0545 91.8352 50.4019 90.4927C49.4882 88.5909 51.6325 87.0806 52.8817 85.9991C54.3361 84.7312 55.9396 83.5379 57.3007 82.1581C58.1957 81.2445 58.4381 80.219 57.6177 79.1749C55.6226 76.695 52.2291 75.7254 49.3391 74.7372C46.132 73.6371 42.4589 72.1641 41.2656 68.6588C40.7248 67.0739 40.8181 65.3771 41.8249 63.9974C42.0673 63.755 41.5825 63.4753 41.3588 63.755Z" fill="#E8E8E8"/>
<path d="M9.23225 149.226C21.9299 145.273 35.5038 142.868 48.6862 145.628C52.3035 146.392 55.8088 147.529 59.165 149.077C59.482 149.226 59.7803 148.741 59.4447 148.592C47.3064 142.98 33.5274 142.961 20.6247 145.646C16.7278 146.448 12.8681 147.511 9.06443 148.685C8.74746 148.797 8.89663 149.338 9.23225 149.226Z" fill="#E8E8E8"/>
<path d="M107.327 88.1248C110.291 88.5164 113.088 86.9688 116.034 86.8756C119.223 86.7637 122.355 87.6773 125.376 88.5723C125.73 88.6656 125.86 88.1435 125.525 88.0316C122.56 87.1553 119.502 86.2603 116.388 86.3162C113.331 86.3535 110.403 87.9757 107.345 87.5841C106.972 87.5095 106.972 88.0689 107.327 88.1248Z" fill="#E8E8E8"/>
<path d="M123.324 86.6703C127.93 85.1413 132.871 85.0854 137.495 86.5397C137.831 86.6516 137.98 86.1109 137.644 85.999C132.927 84.5074 127.874 84.5633 123.175 86.1295C122.84 86.2414 122.989 86.7821 123.324 86.6703Z" fill="#E8E8E8"/>
<path d="M42.0484 121.649C42.9993 121.78 43.8756 121.705 44.7706 121.407C44.9198 121.351 44.9943 121.22 44.9571 121.071C44.8079 120.232 44.6587 119.393 44.5096 118.554C44.379 118.666 44.2299 118.759 44.0994 118.871C44.5841 119.207 45.1808 119.039 45.5351 118.573C46.169 117.752 45.3673 116.82 45.5724 115.944C46.0199 114.042 48.4251 116.354 49.0031 116.951C49.8608 117.827 50.5507 118.834 51.0914 119.934C51.2592 120.251 51.7254 119.971 51.5762 119.654C50.6812 117.846 49.1337 115.664 47.1759 114.844C46.5606 114.583 45.7961 114.508 45.3113 115.049C45.0689 115.31 44.9757 115.664 44.9757 116.018C44.9757 116.223 44.9943 116.41 45.0316 116.615C45.0503 116.764 45.0876 116.895 45.1249 117.044C45.3673 117.659 45.1249 118.107 44.3604 118.368C44.1367 118.219 43.9129 118.461 43.9502 118.685C44.0994 119.524 44.2485 120.363 44.3977 121.202C44.4536 121.09 44.5282 120.978 44.5841 120.866C43.7824 121.146 42.9993 121.239 42.1602 121.109C41.8433 121.071 41.6754 121.612 42.0484 121.649Z" fill="#E8E8E8"/>
<path d="M153.847 100.431C154.052 99.9459 154.239 99.4611 154.462 98.995C154.761 98.3424 155.395 98.1 156.066 98.3424C156.849 98.6221 157.502 98.9391 158.341 98.6594C159.105 98.3983 159.702 97.783 160.243 97.2237C160.634 96.8321 161.044 96.4219 161.548 96.1982C162.219 95.8998 163.636 96.0863 163.338 97.205C163.245 97.5593 163.785 97.7085 163.878 97.3542C164.121 96.4219 163.394 95.6388 162.48 95.4896C161.361 95.3032 160.466 96.2168 159.739 96.944C158.956 97.7271 158.136 98.4916 156.942 98.1187C156.439 97.9509 155.954 97.6339 155.413 97.6152C154.09 97.5593 153.773 99.2188 153.362 100.17C153.232 100.487 153.698 100.766 153.847 100.431Z" fill="#E8E8E8"/>
<path d="M220.17 72.9287C232.494 75.2407 244.875 77.2731 257.293 78.9885C260.78 79.4733 264.248 79.9208 267.734 80.3683C268.089 80.4056 268.089 79.8462 267.734 79.8089C255.372 78.2613 243.066 76.4154 230.798 74.2898C227.311 73.6745 223.805 73.0406 220.319 72.388C219.964 72.332 219.815 72.8541 220.17 72.9287Z" fill="#E8E8E8"/>
<path d="M126.42 155.845C131.062 158.139 136.097 156.237 140.87 155.51C143.685 155.081 146.464 155.361 149.26 155.715C152.113 156.069 154.985 156.423 157.837 156.796C158.192 156.834 158.192 156.274 157.837 156.237C155.152 155.901 152.467 155.566 149.801 155.23C147.154 154.894 144.487 154.54 141.821 154.838C136.843 155.379 131.529 157.766 126.699 155.379C126.382 155.211 126.084 155.696 126.42 155.845Z" fill="#E8E8E8"/>
<path d="M70.9865 140.108C72.8697 141.992 73.6715 144.621 72.8138 147.175C72.59 147.865 73.6715 148.145 73.8952 147.473C74.8648 144.546 73.9325 141.451 71.7696 139.325C71.2662 138.803 70.4831 139.586 70.9865 140.108Z" fill="#E8E8E8"/>
<path d="M72.8695 147.734C73.5221 149.338 75.0138 150.345 76.6732 150.643C77.0275 150.699 77.1766 150.158 76.8224 150.102C75.368 149.841 73.9883 149.002 73.4103 147.585C73.2797 147.25 72.739 147.399 72.8695 147.734Z" fill="#E8E8E8"/>
<path d="M76.7295 150.103C75.5921 150.121 73.9326 149.953 72.8885 150.531C72.0494 151.016 71.7511 152.098 71.6579 152.993C71.4155 155.155 73.1122 156.74 75.2565 156.349C75.6107 156.293 75.4616 155.752 75.1073 155.808C73.1868 156.162 71.9189 154.577 72.2545 152.75C72.4223 151.874 72.7393 151.035 73.6902 150.83C74.6598 150.625 75.7412 150.662 76.7295 150.643C77.0837 150.662 77.0837 150.103 76.7295 150.103Z" fill="#E8E8E8"/>
<path d="M74.9583 155.883C73.8209 155.976 72.292 156.573 72.5344 157.953C72.7395 159.164 73.6904 160.395 74.3617 161.383C74.9397 162.222 75.6109 162.968 76.3381 163.658C78.8366 166.007 81.7826 167.686 84.5235 169.699C87.1339 171.638 89.3527 174.044 91.2172 176.71C91.4223 177.008 91.9071 176.729 91.702 176.43C89.4832 173.279 86.7796 170.426 83.5166 168.338C80.6079 166.474 77.345 164.404 75.2194 161.644C74.7532 161.048 74.3617 160.395 73.9701 159.743C73.6345 159.183 73.1684 158.549 73.0751 157.897C72.926 156.89 74.1379 156.517 74.9583 156.461C75.3126 156.405 75.3312 155.846 74.9583 155.883Z" fill="#E8E8E8"/>
<path d="M71.3223 139.605C77.1211 141.843 82.808 144.304 87.171 148.872C91.1985 153.105 93.7902 158.475 95.0581 164.161C95.4497 165.951 95.7107 167.76 95.8785 169.569C95.9717 170.482 96.0277 171.415 96.065 172.328C96.0836 172.738 96.0836 173.13 96.1023 173.54C96.1023 173.633 96.0836 175.405 95.9531 175.311C95.6548 175.106 95.3751 175.591 95.6734 175.796C96.6989 176.486 96.6803 174.491 96.6803 174.062C96.6616 172.216 96.5684 170.37 96.3447 168.543C95.9345 164.963 95.1327 161.421 93.7716 158.083C91.4595 152.433 87.5253 147.492 82.3791 144.173C79.0043 141.992 75.2193 140.519 71.4901 139.083C71.1359 138.934 70.9867 139.475 71.3223 139.605Z" fill="#E8E8E8"/>
<path d="M73.0561 141.582C81.2042 148.686 87.8606 157.58 91.8694 167.648C92.9509 170.37 93.8272 173.167 94.4984 176.02C94.573 176.374 95.1137 176.225 95.0392 175.871C92.5779 165.523 87.3572 155.957 80.3278 147.996C78.1836 145.572 75.8902 143.297 73.4476 141.19C73.1866 140.948 72.795 141.358 73.0561 141.582Z" fill="#E8E8E8"/>
<path d="M73.3544 147.455C75.4614 147.865 77.4937 148.48 79.4702 149.301C79.8058 149.431 79.9549 148.89 79.6193 148.76C77.6429 147.94 75.5919 147.324 73.5036 146.914C73.1493 146.839 73.0002 147.38 73.3544 147.455Z" fill="#E8E8E8"/>
<path d="M81.4467 149.189C81.9688 147.865 82.7146 146.672 83.6469 145.59C83.8893 145.329 83.4977 144.919 83.2554 145.199C82.2485 146.336 81.4654 147.623 80.906 149.04C80.7941 149.375 81.3349 149.525 81.4467 149.189Z" fill="#E8E8E8"/>
<path d="M92.6715 138.785C95.5988 145.497 98.8059 153.366 94.8903 160.376C94.7225 160.693 95.1886 160.973 95.3751 160.656C99.4025 153.44 96.1768 145.404 93.1563 138.505C93.0071 138.188 92.5223 138.468 92.6715 138.785Z" fill="#E8E8E8"/>
<path d="M93.1746 138.3C94.8714 138.934 97.8547 140.015 97.4258 142.365C97.3699 142.719 97.892 142.868 97.9665 142.514C98.47 139.792 95.3562 138.542 93.3424 137.759C92.9882 137.647 92.839 138.188 93.1746 138.3Z" fill="#E8E8E8"/>
<path d="M97.855 142.626C98.8059 141.824 100.036 142.681 100.559 143.558C101.062 144.397 101.099 145.385 100.708 146.28C100.559 146.616 101.043 146.895 101.193 146.56C101.752 145.292 101.603 143.856 100.689 142.775C99.8873 141.824 98.5076 141.376 97.4634 142.234C97.1837 142.458 97.5939 142.849 97.855 142.626Z" fill="#E8E8E8"/>
<path d="M100.689 147.026C102.236 146.858 103.075 148.368 103.728 149.543C104.437 150.83 105.071 152.154 105.593 153.533C106.599 156.2 107.196 159.015 107.345 161.849C107.606 166.884 106.432 172.123 102.423 175.498C102.143 175.74 102.553 176.132 102.814 175.889C107.177 172.197 108.296 166.324 107.83 160.88C107.55 157.803 106.767 154.783 105.537 151.948C104.921 150.531 104.231 149.021 103.281 147.79C102.628 146.97 101.77 146.355 100.689 146.485C100.335 146.504 100.335 147.063 100.689 147.026Z" fill="#E8E8E8"/>
<path d="M93.6782 139.12C97.5006 144.453 100.782 150.382 101.975 156.908C102.553 160.078 102.609 163.378 101.994 166.548C101.696 168.058 101.267 169.569 100.689 170.986C100.391 171.732 100.036 172.477 99.6448 173.186C99.2719 173.857 98.7684 175.162 97.9667 175.367C97.6124 175.461 97.7616 176.001 98.1159 175.908C99.0668 175.666 99.5329 174.528 99.9804 173.745C100.614 172.627 101.136 171.471 101.565 170.259C102.442 167.816 102.908 165.224 102.982 162.633C103.15 157.225 101.603 151.949 99.2346 147.119C97.7989 144.192 96.0648 141.451 94.163 138.804C93.9392 138.542 93.4545 138.822 93.6782 139.12Z" fill="#E8E8E8"/>
<path d="M106.954 156.013C107.047 155.696 107.14 155.361 107.233 155.044C107.289 154.839 107.383 154.242 107.513 154.074C107.942 153.515 109.322 153.906 109.918 153.981C110.179 154 110.273 153.664 110.123 153.496C109.508 152.862 108.8 151.986 109.135 151.054C109.452 150.159 110.888 149.748 111.447 150.681C111.596 150.569 111.746 150.457 111.895 150.345C111.485 149.842 111.037 149.189 111.093 148.499C111.168 147.623 112.044 147.063 112.883 147.175C113.125 147.213 113.312 146.989 113.2 146.765C112.324 144.975 113.871 142.999 114.449 141.339C115.046 139.643 115.27 137.853 115.195 136.063C115.176 135.708 114.617 135.708 114.636 136.063C114.748 138.375 114.263 140.575 113.312 142.663C112.659 144.062 111.988 145.535 112.715 147.045C112.827 146.914 112.92 146.765 113.032 146.635C112.081 146.504 111.056 146.914 110.664 147.865C110.235 148.909 110.832 149.953 111.485 150.737C111.69 150.979 112.081 150.662 111.932 150.401C111.335 149.394 109.825 149.375 109.042 150.177C107.886 151.371 108.818 152.937 109.751 153.888C109.825 153.72 109.881 153.571 109.956 153.403C109.284 153.328 107.867 152.881 107.289 153.403C106.73 153.906 106.618 155.193 106.432 155.864C106.32 156.218 106.861 156.368 106.954 156.013Z" fill="#E8E8E8"/>
<path d="M114.729 136.641C116.053 139.419 116.668 142.421 117.265 145.423C117.88 148.63 118.514 151.855 118.533 155.137C118.533 160.321 116.668 165.299 113.536 169.382C111.652 171.843 109.359 173.95 106.805 175.666C106.506 175.871 106.786 176.356 107.084 176.151C111.522 173.167 115.195 169.028 117.283 164.068C118.272 161.738 118.887 159.239 119.055 156.703C119.278 153.403 118.738 150.103 118.122 146.858C117.451 143.278 116.799 139.68 115.232 136.361C115.046 136.025 114.561 136.305 114.729 136.641Z" fill="#E8E8E8"/>
<path d="M115.27 138.878C115.736 145.479 114.99 152.098 113.126 158.437C112.175 161.663 110.925 164.814 109.415 167.835C107.998 170.65 106.432 174.174 103.672 175.908C103.374 176.095 103.654 176.579 103.952 176.393C106.003 175.088 107.234 172.981 108.408 170.911C109.732 168.58 110.888 166.175 111.876 163.695C113.89 158.698 115.177 153.422 115.699 148.052C115.997 145.012 116.034 141.936 115.81 138.878C115.792 138.524 115.232 138.524 115.27 138.878Z" fill="#E8E8E8"/>
<path d="M199.398 170.277C199.007 164.907 200.2 159.537 202.885 154.857C202.755 154.894 202.624 154.932 202.494 154.95C202.848 155.118 203.184 155.305 203.538 155.472C203.762 155.584 203.985 155.398 203.948 155.155C203.855 154.689 203.892 154.298 204.041 153.832C203.929 153.888 203.817 153.962 203.706 154.018C204.041 154.111 204.358 154.205 204.694 154.298C204.899 154.354 205.085 154.149 205.029 153.962C204.768 152.862 205.831 152.06 206.577 151.445C207.286 150.848 207.975 150.233 208.609 149.543C209.821 148.238 210.847 146.784 211.686 145.199C211.518 145.199 211.369 145.199 211.201 145.199C213.103 149.562 212.767 154.745 210.418 158.885C209.169 161.085 207.341 162.632 205.496 164.292C203.594 165.989 202.121 167.946 201.244 170.352C201.114 170.687 201.655 170.836 201.785 170.501C202.848 167.592 204.843 165.616 207.118 163.621C208.964 161.998 210.511 160.208 211.537 157.952C213.401 153.85 213.513 149.077 211.705 144.919C211.611 144.733 211.313 144.751 211.22 144.919C210.157 146.914 208.796 148.704 207.136 150.233C206.018 151.259 204.097 152.321 204.507 154.111C204.619 153.999 204.731 153.888 204.843 153.776C204.507 153.682 204.19 153.589 203.855 153.496C203.706 153.459 203.556 153.552 203.519 153.682C203.351 154.242 203.314 154.727 203.426 155.286C203.556 155.174 203.706 155.081 203.836 154.969C203.482 154.801 203.146 154.615 202.792 154.447C202.661 154.372 202.494 154.41 202.4 154.54C199.678 159.295 198.429 164.777 198.839 170.24C198.858 170.631 199.417 170.631 199.398 170.277Z" fill="#E8E8E8"/>
<path d="M213.178 152.079C214.352 150.904 215.396 149.636 216.329 148.257C216.18 148.275 216.03 148.294 215.881 148.313C217.783 150.513 218.585 153.533 218.081 156.405C217.969 157.02 217.802 157.635 217.578 158.232C217.429 158.624 217.261 159.052 217.019 159.388C216.776 159.761 216.59 159.817 216.18 159.966C215.9 160.059 215.639 160.041 215.49 160.358C215.434 160.47 215.49 160.525 215.49 160.637C215.639 160.954 215.732 161.271 215.769 161.626C215.788 161.831 215.788 162.017 215.751 162.222C215.844 162.129 215.937 162.036 216.03 161.943C214.781 161.998 214.893 163.229 214.408 164.068C213.737 165.224 212.077 165.541 210.94 166.045C208.386 167.182 206.092 168.86 204.209 170.93C203.967 171.191 204.358 171.601 204.601 171.321C206.391 169.363 208.516 167.76 210.94 166.641C211.928 166.194 213.028 165.914 213.942 165.299C214.259 165.094 214.539 164.851 214.762 164.534C215.135 164.012 215.266 162.502 216.03 162.465C216.198 162.465 216.291 162.334 216.31 162.185C216.329 161.868 216.329 161.551 216.273 161.234C216.18 160.768 215.956 160.656 216.422 160.47C216.925 160.264 217.112 160.264 217.41 159.761C218.137 158.568 218.566 157.169 218.715 155.79C219.014 152.937 218.137 150.065 216.273 147.902C216.142 147.753 215.918 147.828 215.825 147.958C214.912 149.301 213.905 150.531 212.767 151.669C212.544 151.949 212.935 152.34 213.178 152.079Z" fill="#E8E8E8"/>
<path d="M210.064 150.289C209.877 151.986 208.609 153.645 207.714 155.062C206.801 156.479 205.831 157.841 204.88 159.22C203.034 161.905 201.263 164.628 200.088 167.685C199.958 168.021 200.498 168.17 200.629 167.835C201.897 164.534 203.892 161.626 205.887 158.736C206.838 157.356 207.789 155.976 208.684 154.559C209.486 153.254 210.437 151.855 210.604 150.289C210.679 149.935 210.12 149.935 210.064 150.289Z" fill="#E8E8E8"/>
<path d="M205.663 151.818C205.533 153.142 205.719 154.447 206.241 155.678C206.372 156.013 206.912 155.864 206.782 155.528C206.297 154.335 206.111 153.104 206.241 151.818C206.26 151.464 205.7 151.464 205.663 151.818Z" fill="#E8E8E8"/>
<path d="M204.899 160.246C206.073 160.432 207.192 160.283 208.292 159.798C208.628 159.649 208.33 159.164 208.013 159.314C207.08 159.724 206.073 159.873 205.067 159.705C204.712 159.668 204.545 160.19 204.899 160.246Z" fill="#E8E8E8"/>
<path d="M142.828 176.057C156.234 176.057 169.659 176.057 183.065 176.057C196.471 176.057 209.896 176.057 223.302 176.057C230.872 176.057 238.461 176.057 246.031 176.057C247.112 176.057 247.112 174.379 246.031 174.379C232.625 174.379 219.2 174.379 205.794 174.379C192.388 174.379 178.963 174.379 165.557 174.379C157.987 174.379 150.398 174.379 142.828 174.379C141.746 174.379 141.746 176.057 142.828 176.057Z" fill="#161616"/>
<path d="M212.525 172.925C221.289 172.925 230.071 172.925 238.834 172.925C239.915 172.925 239.915 171.247 238.834 171.247C230.071 171.247 221.289 171.247 212.525 171.247C211.444 171.247 211.444 172.925 212.525 172.925Z" fill="#161616"/>
<path d="M131.585 175.834C133.915 175.834 136.228 175.834 138.558 175.834C139.64 175.834 139.64 174.156 138.558 174.156C136.228 174.156 133.915 174.156 131.585 174.156C130.503 174.156 130.503 175.834 131.585 175.834Z" fill="#161616"/>
<path d="M122.597 176.057C123.567 176.057 124.555 176.057 125.525 176.057C126.606 176.057 126.606 174.379 125.525 174.379C124.555 174.379 123.567 174.379 122.597 174.379C121.516 174.379 121.516 176.057 122.597 176.057Z" fill="#161616"/>
<path d="M242.88 172.458C245.211 172.458 247.523 172.458 249.853 172.458C250.935 172.458 250.935 170.78 249.853 170.78C247.523 170.78 245.211 170.78 242.88 170.78C241.798 170.78 241.798 172.458 242.88 172.458Z" fill="#161616"/>
<path d="M253.899 172.235C254.944 172.235 256.006 172.235 257.051 172.235C258.132 172.235 258.132 170.557 257.051 170.557C256.006 170.557 254.944 170.557 253.899 170.557C252.818 170.557 252.818 172.235 253.899 172.235Z" fill="#161616"/>
<path d="M47.2693 177.717C60.5823 177.717 73.8952 177.717 87.2081 177.717C88.2895 177.717 88.2895 176.039 87.2081 176.039C73.8952 176.039 60.5823 176.039 47.2693 176.039C46.1879 176.039 46.1879 177.717 47.2693 177.717Z" fill="#161616"/>
<path d="M34.8702 172.906C39.3451 172.906 43.82 172.906 48.295 172.906C49.3764 172.906 49.3764 171.228 48.295 171.228C43.82 171.228 39.3451 171.228 34.8702 171.228C33.7887 171.228 33.7887 172.906 34.8702 172.906Z" fill="#161616"/>
<path d="M53.814 173.932C55.3057 173.932 56.7973 173.932 58.2889 173.932C59.3704 173.932 59.3704 172.253 58.2889 172.253C56.7973 172.253 55.3057 172.253 53.814 172.253C52.7326 172.253 52.7326 173.932 53.814 173.932Z" fill="#161616"/>
<path d="M87.7116 49.7522C88.532 48.186 89.4829 46.713 90.6016 45.3332C91.2729 44.4942 90.0982 43.3009 89.4083 44.1399C88.1963 45.6316 87.1522 47.1978 86.2572 48.8945C85.7538 49.8455 87.2081 50.7032 87.7116 49.7522Z" fill="#161616"/>
<path d="M95.6546 38.2477C96.158 36.9798 96.9411 35.8984 97.9107 34.9661C98.6938 34.2203 97.5191 33.0456 96.7174 33.7728C95.5054 34.8915 94.6291 36.2527 94.0138 37.7816C93.6408 38.8071 95.263 39.2359 95.6546 38.2477Z" fill="#161616"/>
<path d="M102.814 27.6574C103.933 26.3335 105.052 25.0097 106.171 23.6859C106.861 22.8655 105.686 21.6721 104.977 22.4925C103.859 23.8164 102.74 25.1402 101.621 26.4641C100.95 27.3031 102.125 28.4964 102.814 27.6574Z" fill="#161616"/>
<path d="M112.566 15.4446C114.114 14.1394 115.642 12.8342 117.19 11.5476C118.01 10.8578 116.817 9.66444 115.997 10.3543C114.449 11.6595 112.92 12.9647 111.373 14.2512C110.552 14.9598 111.746 16.1344 112.566 15.4446Z" fill="#161616"/>
<path d="M126.494 6.14038C127.632 5.73018 128.769 5.56237 129.963 5.65559C131.044 5.73018 131.044 4.05208 129.963 3.9775C128.62 3.88427 127.315 4.07072 126.047 4.51822C125.04 4.87248 125.469 6.49464 126.494 6.14038Z" fill="#161616"/>
<path d="M138.987 6.14043C139.807 6.53199 140.46 7.18458 140.758 8.06092C141.112 9.08643 142.734 8.63894 142.38 7.61343C141.951 6.34553 141.056 5.26409 139.844 4.68608C139.434 4.49963 138.931 4.57421 138.688 4.98441C138.465 5.35732 138.576 5.95398 138.987 6.14043Z" fill="#161616"/>
<path d="M177.788 159.481C177.434 160.767 178.18 161.271 177.695 162.744C177.49 163.34 177.061 164.217 174.73 166.007C172.661 167.592 170.777 168.599 170.218 168.878C167.216 170.444 166.023 170.556 165.333 171.936C165.24 172.123 164.55 173.521 165.147 174.435C165.967 175.684 168.465 174.733 173.686 174.341C178.254 174.006 178.627 174.546 182.114 174.062C185.265 173.614 187.745 172.775 189.311 172.141C189.442 168.617 188.901 166.025 188.36 164.273C187.558 161.7 186.831 161.14 186.16 158.045C185.899 156.833 185.88 156.33 185.396 155.938C183.662 154.558 178.59 156.572 177.788 159.481Z" fill="#515151"/>
<path d="M204.955 91.4247C204.451 94.9114 202.009 96.6268 197.161 103.115C192.518 109.324 189.386 114.843 187.447 118.554C185.936 121.985 184.37 126.572 183.624 132.128C182.133 143.39 184.911 152.526 186.813 157.355C183.494 157.915 180.175 158.493 176.856 159.052C174.171 152.638 171.393 143.595 171.356 132.669C171.318 121.108 174.302 112.364 179.802 97.4472C182.301 90.6602 185.955 81.5985 191.157 71.157C203.687 80.6476 205.57 87.1922 204.955 91.4247Z" fill="#3B3A3B"/>
<path d="M224.682 156.498C224.328 157.784 225.074 158.288 224.589 159.761C224.384 160.357 223.955 161.234 221.624 163.024C219.554 164.608 217.671 165.615 217.112 165.895C214.11 167.461 212.917 167.573 212.227 168.953C212.134 169.139 211.444 170.538 212.04 171.451C212.861 172.701 215.359 171.75 220.58 171.358C225.148 171.023 225.521 171.563 229.008 171.079C232.159 170.631 234.639 169.792 236.205 169.158C236.335 165.634 235.795 163.042 235.254 161.29C234.452 158.717 233.725 158.157 233.054 155.062C232.793 153.85 232.774 153.347 232.289 152.955C230.555 151.575 225.484 153.589 224.682 156.498Z" fill="#515151"/>
<path d="M210.996 75.5948C212.04 76.9186 213.476 78.895 214.949 81.4308C219.48 89.1874 220.617 95.8252 222.034 103.097C223.843 112.382 226.155 121.537 228.075 130.804C229.958 139.903 231.58 147.343 232.662 152.265C232.494 152.582 230.779 155.491 227.46 155.808C225.688 155.976 224.309 155.304 223.712 154.969C218.752 146.112 215.657 138.505 213.718 133.098C208.609 118.89 207.453 108.467 198.727 94.7624C197.235 92.4131 195.893 90.5485 194.979 89.3552C191.586 84.9362 192.182 78.6153 196.229 74.9795C200.386 71.1944 207.006 71.4182 210.996 75.5948Z" fill="#3B3A3B"/>
<path d="M197.497 95.3961C199.026 96.2911 200.331 97.4471 201.412 98.8642C201.617 99.1438 202.121 98.8642 201.897 98.5845C200.778 97.0928 199.399 95.8622 197.795 94.9113C197.478 94.7435 197.198 95.2096 197.497 95.3961Z" fill="#6C6D6D"/>
<path d="M214.333 95.0791C214.501 95.5639 214.688 96.03 214.855 96.5148C214.986 96.8504 215.527 96.7012 215.396 96.3656C215.228 95.8808 215.042 95.4147 214.874 94.9299C214.762 94.5943 214.221 94.7434 214.333 95.0791Z" fill="#6C6D6D"/>
<path d="M216.179 100.132C216.403 100.785 216.627 101.437 216.832 102.108C216.944 102.444 217.485 102.295 217.373 101.959C217.149 101.307 216.925 100.654 216.72 99.9828C216.608 99.6286 216.068 99.7777 216.179 100.132Z" fill="#6C6D6D"/>
<path d="M218.361 106.36C218.547 106.938 218.734 107.516 218.92 108.112C219.032 108.448 219.573 108.318 219.461 107.963C219.274 107.385 219.088 106.807 218.902 106.211C218.79 105.875 218.249 106.006 218.361 106.36Z" fill="#6C6D6D"/>
<path d="M220.356 112.215C220.711 112.96 220.953 113.743 221.083 114.564C221.139 114.918 221.68 114.769 221.624 114.415C221.475 113.557 221.214 112.737 220.841 111.935C220.692 111.618 220.207 111.898 220.356 112.215Z" fill="#6C6D6D"/>
<path d="M222.593 119.262C222.873 120.139 223.171 121.015 223.451 121.891C223.563 122.227 224.104 122.078 223.992 121.742C223.712 120.866 223.414 119.99 223.134 119.113C223.022 118.778 222.481 118.927 222.593 119.262Z" fill="#6C6D6D"/>
<path d="M224.812 128.231C225.073 129.182 225.334 130.114 225.595 131.065C225.689 131.42 226.229 131.27 226.136 130.916C225.875 129.965 225.614 129.033 225.353 128.082C225.26 127.728 224.719 127.877 224.812 128.231Z" fill="#6C6D6D"/>
<path d="M226.584 136.752C226.826 137.777 227.087 138.803 227.329 139.81C227.423 140.164 227.963 140.015 227.87 139.661C227.628 138.635 227.367 137.61 227.124 136.603C227.031 136.248 226.49 136.398 226.584 136.752Z" fill="#6C6D6D"/>
<path d="M228.541 145.926C228.728 146.522 228.933 147.1 229.119 147.697C229.231 148.033 229.772 147.884 229.66 147.548C229.474 146.951 229.268 146.373 229.082 145.777C228.97 145.441 228.429 145.59 228.541 145.926Z" fill="#6C6D6D"/>
<path d="M229.921 151.948C229.958 152.209 229.996 152.452 230.033 152.713C230.051 152.862 230.238 152.936 230.368 152.899C230.536 152.862 230.592 152.713 230.555 152.563C230.518 152.302 230.48 152.06 230.443 151.799C230.424 151.65 230.238 151.575 230.107 151.613C229.958 151.65 229.902 151.799 229.921 151.948Z" fill="#6C6D6D"/>
<path d="M152.319 18.5582C152.188 18.6328 151.312 19.0803 151.218 19.9193C151.125 20.6465 151.666 21.2059 151.983 21.5415C153.661 23.2755 156.961 22.8467 157.688 22.7348C158.248 22.9026 159.106 23.2009 160.075 23.6671C162.984 25.0655 164.755 26.9487 165.445 27.6759C167.552 29.8574 170.628 31.9643 176.781 36.1969C178.646 37.4834 181.424 39.3107 184.967 41.3058C185.619 41.3058 186.701 41.2312 187.857 40.7091C188.304 40.504 191.269 39.1615 191.511 36.2715C191.717 33.9967 190.076 32.3559 189.815 32.0949C186.906 30.9388 184.501 29.8947 182.748 29.1116C171.542 24.1332 164.774 19.938 163.245 18.9684C162.126 18.2599 161.212 17.6632 160.597 17.2716C160.168 16.5258 159.143 14.9782 157.185 13.9527C156.812 13.7663 154.015 12.3492 150.883 13.3561C150.305 13.5425 149.839 13.7663 149.522 13.9527C147.881 13.7476 145.886 13.5985 145.774 14.046C145.699 14.3443 146.482 14.7731 147.564 15.4071C148.701 16.097 150.342 17.1225 152.319 18.5582Z" fill="white"/>
<path d="M157.782 22.5108C156.421 22.6599 155.041 22.5853 153.717 22.1938C153.102 22.0073 152.43 21.7836 151.983 21.3174C151.032 20.3479 151.797 19.3783 152.654 18.7817C152.953 18.5766 152.673 18.0918 152.375 18.2969C151.759 18.7257 151.107 19.1919 150.976 19.975C150.846 20.7208 151.237 21.4293 151.815 21.8955C153.344 23.1634 155.917 23.2752 157.782 23.0701C158.136 23.0328 158.136 22.4735 157.782 22.5108Z" fill="#161616"/>
<path d="M152.132 18.2037C151.088 17.4765 150.044 16.768 148.981 16.0968C148.496 15.7798 148.012 15.4815 147.527 15.1831C147.229 14.9967 146.93 14.8289 146.632 14.6424C146.445 14.5305 145.793 14.2881 145.756 14.1203C145.718 14.2322 145.662 14.3254 145.625 14.4373C146.501 13.7847 148.366 14.2322 149.298 14.456C150.361 14.717 151.573 15.034 152.505 15.6306C152.804 15.8171 153.083 15.3323 152.785 15.1458C151.648 14.4187 150.1 14.0271 148.795 13.7661C147.825 13.5796 146.203 13.3186 145.345 13.9525C145.252 14.0271 145.178 14.139 145.215 14.2695C145.327 14.6424 145.756 14.7729 146.054 14.9594C146.707 15.3323 147.34 15.7239 147.974 16.1154C149.298 16.9358 150.585 17.7935 151.853 18.6885C152.151 18.8936 152.431 18.4088 152.132 18.2037Z" fill="#161616"/>
<path d="M149.615 14.3442C151.479 13.1508 153.847 12.8712 155.917 13.7661C157.838 14.5866 159.217 16.2274 160.485 17.8309C160.709 18.1106 161.101 17.719 160.877 17.4393C159.46 15.668 157.894 13.8594 155.693 13.0763C153.586 12.3304 151.218 12.6661 149.354 13.878C149.037 14.0458 149.317 14.5306 149.615 14.3442Z" fill="#161616"/>
<path d="M160.56 17.7376C169.845 23.3686 179.522 28.3097 189.535 32.5236C189.871 32.6541 190.02 32.1134 189.684 31.9828C179.727 27.7876 170.088 22.8652 160.84 17.2529C160.523 17.085 160.243 17.5512 160.56 17.7376Z" fill="#161616"/>
<path d="M157.465 22.8651C160.15 23.5364 162.219 25.3823 164.289 27.1163C166.415 28.8876 168.559 30.6403 170.759 32.3371C175.234 35.7865 179.933 38.9749 184.948 41.6039C185.265 41.7717 185.545 41.2869 185.228 41.1191C180.082 38.4155 175.271 35.1339 170.666 31.5726C168.372 29.8013 166.154 27.9554 163.935 26.1094C162.033 24.5246 160.057 22.9397 157.614 22.343C157.26 22.2312 157.111 22.7719 157.465 22.8651Z" fill="#161616"/>
<path d="M189.367 32.5794C191.642 33.5303 191.567 36.3645 190.337 38.1358C189.274 39.6647 186.813 41.5852 184.855 40.8767C184.519 40.7462 184.37 41.2869 184.706 41.4174C187.074 42.2751 190.038 39.8885 191.12 37.9307C192.276 35.8424 191.866 33.0456 189.498 32.0573C189.181 31.8895 189.032 32.4302 189.367 32.5794Z" fill="#161616"/>
<path d="M191.772 31.9641C191.325 32.0573 190.672 32.2624 189.982 32.6726C188.752 33.4371 188.118 34.4813 187.652 35.3576C185.545 39.3105 184.967 42.331 184.967 42.331C184.184 46.4331 184.65 49.752 184.967 51.8962C185.526 55.6812 186.123 55.4202 186.757 59.5782C187.036 61.4054 187.391 64.4633 187.204 68.2483C187.074 70.8587 186.738 73.0775 186.402 74.7743C186.831 75.2591 187.484 75.9489 188.379 76.6575C193.04 80.3307 198.671 80.051 200.461 79.9577C205.551 79.6967 209.281 77.5898 211.108 76.3778C211.294 76.1168 211.462 75.8371 211.649 75.576C211.332 74.7743 210.903 73.5064 210.567 71.9029C209.803 68.1551 210.231 65.5447 210.567 61.0884C210.716 59.0374 210.903 56.0169 210.921 52.2318C210.474 52.2318 210.026 52.2318 209.579 52.2318C209.243 52.2505 206.204 52.3064 204.302 49.9011C202.661 47.8315 203.053 45.4075 203.146 44.8855C203.612 41.9581 206.074 39.5156 209.411 38.5273C208.013 37.7815 206.502 36.8865 204.936 35.8424C203.183 34.6677 201.636 33.493 200.293 32.3557C198.783 32.7286 197.553 33.0828 196.713 33.3439C194.942 33.8846 194.271 34.1643 193.488 33.8846C192.518 33.5676 192.015 32.6167 191.772 31.9641Z" fill="white"/>
<path d="M192.052 31.9269C190.169 31.8337 188.752 33.1762 187.764 34.6492C186.477 36.551 185.601 38.7885 185.004 40.9887C183.699 45.8738 184.277 50.6471 185.396 55.4949C185.992 58.0307 186.626 60.5665 186.887 63.1769C187.148 65.9737 186.999 68.8078 186.608 71.586C186.477 72.5742 186.048 73.7489 186.142 74.7371C186.235 75.6135 187.148 76.1728 187.801 76.6576C189.61 78.0001 191.679 78.951 193.861 79.529C199.1 80.9088 204.601 79.9579 209.486 77.8136C209.821 77.6645 209.523 77.1797 209.206 77.3289C204.936 79.1934 200.144 80.163 195.502 79.3239C193.432 78.951 191.418 78.2425 189.61 77.1797C188.808 76.7136 187.838 76.1542 187.204 75.4643C186.328 74.4947 187.037 72.537 187.204 71.325C187.801 66.8128 187.559 62.4684 186.552 58.0307C185.545 53.5185 184.352 49.0995 184.892 44.4381C185.191 41.8837 185.918 39.3852 187.037 37.0731C187.987 35.0967 189.479 32.3558 192.034 32.4863C192.425 32.505 192.425 31.9456 192.052 31.9269Z" fill="#161616"/>
<path d="M204.805 36.2154C206.26 36.9798 207.696 37.8002 209.131 38.6393C209.448 38.8258 209.728 38.341 209.411 38.1545C207.994 37.3155 206.558 36.5137 205.085 35.7306C204.768 35.5628 204.488 36.0476 204.805 36.2154Z" fill="#161616"/>
<path d="M209.541 38.1546C206.987 39.2547 205.01 40.5972 203.724 43.133C202.717 45.1467 201.953 47.7944 203.799 49.5844C204.06 49.8267 204.451 49.4352 204.19 49.1928C202.288 47.3655 203.537 44.4941 204.656 42.5923C205.831 40.5972 207.751 39.5344 209.821 38.6394C210.157 38.4902 209.858 38.0055 209.541 38.1546Z" fill="#161616"/>
<path d="M210.567 52.6978C211.015 56.688 210.157 60.6035 209.915 64.575C209.691 68.3601 210.157 72.1451 211.257 75.7624C211.369 76.098 211.91 75.9675 211.798 75.6132C210.679 71.9214 210.231 68.0804 210.493 64.2208C210.754 60.3798 211.537 56.5575 211.108 52.6978C211.089 52.3436 210.53 52.3436 210.567 52.6978Z" fill="#161616"/>
<path d="M211.294 75.6134C210.735 76.3406 210.045 76.9372 209.243 77.3847C208.926 77.5525 209.206 78.0373 209.523 77.8695C210.418 77.3661 211.164 76.6948 211.779 75.8931C212.003 75.5947 211.499 75.3151 211.294 75.6134Z" fill="#161616"/>
<path d="M203.668 49.4909C205.458 51.5979 208.069 52.7539 210.828 52.6793C211.182 52.6793 211.182 52.12 210.828 52.12C208.199 52.1759 205.757 51.0758 204.06 49.0807C203.817 48.8197 203.426 49.2112 203.668 49.4909Z" fill="#161616"/>
<path opacity="0.15" d="M195.371 37.0916C198.858 44.0278 200.275 50.1435 200.909 54.2642C201.654 59.1307 201.617 63.0089 201.58 65.2277C201.468 71.2316 200.629 76.2286 199.808 79.8645C200.48 79.8272 201.132 79.7899 201.804 79.7526C203.109 79.7526 205.402 79.5475 207.901 78.3169C209.504 77.5152 210.679 76.5269 211.443 75.7625C210.697 73.0775 210.436 70.896 210.343 69.4416C210.082 65.7312 210.642 63.6988 210.903 58.3662C211.033 55.7558 211.033 53.6675 211.014 52.381C209.97 52.3623 208.236 52.1759 206.465 51.169C205.458 50.591 203.799 49.6214 203.258 47.7382C202.922 46.5636 203.165 45.5567 203.37 44.7549C203.482 44.3074 204.283 41.2869 207.248 39.6647C208.292 39.0867 209.262 38.8629 209.914 38.7697C206.26 36.8865 202.605 35.0033 198.951 33.1201C198.615 33.6981 198.186 34.3321 197.627 35.0033C196.825 35.8983 196.042 36.5882 195.371 37.0916Z" fill="#6C6D6D"/>
<path opacity="0.29" d="M205.048 50.4231C205.756 54.3014 206.334 59.634 205.756 65.8989C205.253 71.4366 204.004 76.0421 202.792 79.4915C203.985 79.4356 205.775 79.1932 207.789 78.3728C209.597 77.6269 210.94 76.6387 211.798 75.9115C211.406 74.8674 210.921 73.3758 210.604 71.5485C210.474 70.7654 210.25 69.3297 210.25 66.9058C210.231 62.8783 210.791 61.685 210.959 57.6762C211.014 56.5202 211.033 54.7116 210.884 52.4741C210.269 52.5487 209.187 52.586 207.919 52.1944C206.446 51.7283 205.495 50.8892 205.048 50.4231Z" fill="#6C6D6D"/>
<path d="M210.251 38.6206C208.442 38.6952 207.137 39.7953 206.316 40.4478C205.664 40.9886 203.818 42.5175 203.352 45.1652C203.221 45.911 202.941 47.4959 203.781 49.0061C205.067 51.2809 208.032 51.8216 208.833 51.9708C210.027 52.1945 210.157 51.9521 210.754 52.2318C211.425 52.5302 212.6 53.4065 213.29 58.2543C213.644 60.7342 214.11 64.2582 213.029 68.9009C212.078 73.003 211.295 74.2149 210.493 74.8302C209.617 75.5201 208.162 76.1914 208.05 76.2286C206.577 76.8999 206.26 76.7507 204.899 77.366C203.855 77.8322 202.643 78.3542 201.674 79.5475C200.779 80.629 200.424 81.8223 200.275 82.6054C201.674 82.4003 203.072 82.1952 204.47 81.9901C204.694 82.3817 205.011 82.9783 205.347 83.7428C206.055 85.365 206.316 86.6515 206.391 86.9685C206.689 88.2737 207.733 90.362 210.922 93.7741C210.549 91.4434 210.157 89.1127 209.784 86.8007C210.157 87.677 210.735 88.7398 211.612 89.8585C212.917 91.518 214.353 92.5621 215.359 93.1774C215.192 90.8468 215.005 88.5161 214.837 86.204C215.77 87.5092 216.702 88.8144 217.634 90.1382C217.485 88.9263 217.205 87.4905 216.683 85.943C215.676 82.9597 214.185 80.7595 213.01 79.3052C213.551 78.895 214.297 78.2983 215.098 77.4779C216.273 76.2846 217.187 75.0353 218.063 73.5437C220.002 70.2807 221.512 67.7449 222.333 64.0345C222.594 62.8411 223.713 57.3594 221.55 50.8521C220.972 49.0994 219.294 44.7363 215.359 41.1564C212.749 38.7511 211.145 38.5833 210.251 38.6206Z" fill="white"/>
<path d="M210.008 38.3966C213.308 39.7018 216.236 41.846 218.287 44.7547C220.207 47.4956 221.177 50.6653 221.96 53.891C223.657 60.8272 221.661 67.726 217.709 73.5061C216.366 75.4639 214.837 77.2912 213.178 78.9879C212.935 79.249 213.327 79.6405 213.569 79.3795C217.298 75.5385 220.487 71.0263 222.09 65.8615C223.246 62.1696 223.47 58.2541 222.65 54.469C221.941 51.2247 220.972 47.9431 219.182 45.1276C217.037 41.7528 213.83 39.3289 210.138 37.8559C209.822 37.7253 209.672 38.2661 210.008 38.3966Z" fill="#161616"/>
<path d="M208.852 52.1571C212.73 52.1198 213.047 58.3661 213.14 61.0697C213.234 64.0716 213.178 67.1668 212.357 70.0568C211.947 71.4925 211.35 72.8723 210.455 74.0843C209.971 74.7555 209.374 75.4641 208.647 75.8929C208.032 76.2658 207.36 76.359 206.652 76.5082C204.377 76.993 202.345 78.2795 201.095 80.256C200.797 80.7407 199.716 82.1019 200.2 82.7358C200.35 82.9409 200.573 82.9409 200.816 82.9409C201.543 82.9036 202.289 82.6426 202.997 82.4934C203.352 82.4188 203.202 81.8781 202.848 81.9527C202.27 82.0832 201.524 82.3816 200.928 82.3629C200.573 82.3443 200.629 82.4188 200.76 82.0459C200.89 81.6357 201.151 81.2442 201.375 80.8713C202.214 79.4542 203.333 78.3914 204.843 77.7015C205.719 77.2913 206.596 77.1235 207.528 76.8998C208.889 76.5828 209.877 75.7437 210.735 74.6436C212.357 72.5553 213.122 69.945 213.476 67.3532C213.868 64.3886 213.886 61.2748 213.513 58.3101C213.178 55.6998 212.245 51.5418 208.871 51.5791C208.498 51.6164 208.498 52.1758 208.852 52.1571Z" fill="#161616"/>
<path d="M202.643 82.5121C202.941 82.4562 203.277 82.3629 203.594 82.3443C203.985 82.2138 204.377 82.307 204.731 82.624C204.769 82.7359 204.787 82.8291 204.824 82.941C205.104 83.5003 205.197 84.2462 205.384 84.8428C205.757 85.9988 206.204 87.1362 206.708 88.2363C207.715 90.4178 209.038 92.4502 210.772 94.1283C210.996 94.3334 211.276 94.1283 211.239 93.8486C210.903 91.6857 210.567 89.5228 210.232 87.36C210.176 87.0057 209.635 87.1549 209.691 87.5091C210.027 89.672 210.362 91.8349 210.698 93.9978C210.847 93.9045 211.015 93.8113 211.164 93.7181C208.982 91.6298 207.509 88.9821 206.447 86.1853C206.186 85.4768 205.943 84.7682 205.719 84.0597C205.533 83.463 205.458 82.7359 205.179 82.1951C204.675 81.2442 203.333 81.8222 202.512 81.9714C202.14 82.0273 202.289 82.5681 202.643 82.5121Z" fill="#161616"/>
<path d="M212.917 79.4729C214.353 81.0764 215.229 82.9037 216.012 84.8801C216.833 86.9498 217.597 89.038 217.784 91.2569C217.97 91.2382 218.157 91.2009 218.324 91.1823C217.504 89.1872 216.348 87.3972 214.875 85.831C214.633 85.57 214.241 85.9615 214.483 86.2226C215.882 87.7142 217.001 89.4296 217.784 91.3314C217.896 91.5925 218.362 91.6111 218.324 91.2569C218.119 88.8516 217.299 86.6328 216.404 84.414C215.621 82.4562 214.688 80.6662 213.29 79.0813C213.085 78.8016 212.675 79.1932 212.917 79.4729Z" fill="#161616"/>
<path d="M209.411 87.0989C210.959 89.6347 212.973 91.7975 215.378 93.5502C215.564 93.6807 215.788 93.4943 215.807 93.3078C215.863 90.9398 215.527 88.6092 214.949 86.3344C214.856 85.9801 214.315 86.1293 214.408 86.4836C214.968 88.721 215.303 90.9958 215.247 93.3078C215.396 93.2332 215.527 93.14 215.676 93.0654C213.345 91.3873 211.406 89.2617 209.915 86.8192C209.71 86.5209 209.225 86.8005 209.411 87.0989Z" fill="#161616"/>
<path d="M211.481 85.7191C212.879 87.9193 214.054 90.2314 214.968 92.6553C215.098 92.9909 215.639 92.8417 215.508 92.5061C214.576 90.0263 213.401 87.6583 211.966 85.4208C211.761 85.1411 211.276 85.4208 211.481 85.7191Z" fill="#161616"/>
<path opacity="0.33" d="M206.111 40.7088C208.087 41.5665 213.588 44.2701 216.907 50.4977C220.598 57.4712 220.188 66.6261 216.608 71.2875C215.135 73.1894 212.674 75.9303 211.705 76.8998C209.952 78.6712 209.262 79.1187 208.553 79.4356C206.95 80.1814 206.148 79.8831 203.985 80.7781C202.139 81.5426 201.058 82.4376 201.114 82.5121C201.151 82.6054 202.475 81.9714 203.762 82.0087C203.762 82.0087 204.731 82.0274 205.011 82.4748C205.029 82.4935 205.048 82.5308 205.048 82.5308C205.104 82.6427 205.104 82.7918 205.29 83.519C205.421 84.0597 205.57 84.5072 205.645 84.7869C206.092 86.1853 206.763 87.8821 207.826 89.728C208.889 91.5925 210.045 93.0469 211.033 94.1283C210.735 91.9468 210.455 89.7653 210.157 87.5651C210.847 88.6838 211.816 90.0076 213.178 91.3315C214.017 92.1519 214.837 92.8231 215.583 93.3452C215.359 90.9213 215.117 88.4974 214.893 86.0548C215.583 86.9311 216.291 87.9566 216.981 89.1127C217.391 89.7839 217.727 90.4365 218.044 91.0518C217.82 89.1872 217.298 86.7447 216.105 84.0784C215.452 82.6054 214.707 81.3748 214.017 80.3493C213.942 79.8458 213.867 79.361 213.812 78.8576C214.595 78.0745 215.62 76.9371 216.739 75.5014C218.044 73.8233 220.524 70.5976 221.904 66.2905C224.495 58.2543 221.773 51.0757 221.046 49.2485C220.263 47.2721 219.107 44.4566 216.31 41.8462C214.054 39.7393 211.705 38.6765 210.194 38.1357C209.56 38.3408 208.74 38.6765 207.864 39.2545C207.08 39.7579 206.521 40.28 206.111 40.7088Z" fill="#6C6D6D"/>
<path opacity="0.31" d="M217.82 73.3573C217.541 73.1149 214.315 76.4338 213.178 77.6272C210.605 80.3494 210.362 81.0952 210.25 81.5054C209.766 83.3141 210.437 84.8803 211.555 87.3974C212.506 89.5417 214.52 93.3081 215.285 93.0284C215.639 92.8979 215.956 91.8537 214.651 85.8685C216.981 90.1756 217.709 91.0147 217.932 90.9028C218.361 90.7163 217.317 86.9499 215.825 83.7056C214.986 81.8783 214.11 80.4426 213.476 79.4731C217.298 74.6625 217.97 73.4879 217.82 73.3573Z" fill="#6C6D6D"/>
<path d="M182.189 12.9643C182.002 13.4305 182.077 13.4864 181.629 14.9221C181.443 15.5188 181.275 16.0222 181.144 16.3578C181.144 16.3578 180.51 18.1664 180.193 20.6836C180.156 20.926 180.119 21.3548 180.361 21.6345C180.734 22.0634 181.405 21.7091 182.002 22.0634C182.524 22.3803 182.636 23.0143 182.785 23.6296C183.214 25.4196 183.923 26.818 184.09 27.0977C185.638 29.9691 189.926 30.4352 190.411 30.4725C191.138 30.5471 191.754 30.5098 192.145 30.4725C191.735 31.2929 191.791 32.2625 192.313 32.9897C193.078 34.0338 194.551 33.9033 194.998 33.8473C195.93 33.7541 196.62 33.3253 196.937 33.1015C196.602 32.2811 196.229 31.0319 196.21 29.5029C196.191 26.2959 197.814 24.0398 198.447 23.2567C198.802 23.1821 199.529 22.9956 200.182 22.399C200.331 22.2685 201.561 21.1124 201.338 19.453C201.226 18.5766 200.648 17.1782 199.398 16.9358C198.485 16.768 197.739 17.2901 197.534 17.4393C197.366 17.0291 197.198 16.6189 197.03 16.2087C195.986 16.19 194.662 16.0222 193.227 15.4815C189.013 13.9153 186.999 10.3353 186.402 9.16064C185.992 9.30981 185.396 9.57084 184.743 10.0183C184.165 10.4099 182.804 11.3422 182.189 12.9643Z" fill="white"/>
<path d="M181.461 13.8409C181.088 16.9361 180.473 19.9939 179.671 23.0145C179.615 23.2196 179.802 23.4061 180.007 23.3501C180.846 23.1264 181.666 22.9026 182.505 22.6975C182.393 22.6416 182.282 22.567 182.17 22.5111C182.58 24.3943 183.363 26.147 184.463 27.7318C184.929 28.4031 185.451 29.037 186.011 29.6337C186.495 30.1558 186.868 30.6965 187.596 30.7338C190.877 30.9016 193.972 29.4286 196.117 26.986C196.359 26.725 195.967 26.3148 195.725 26.5944C193.73 28.8692 190.933 30.2676 187.875 30.193C186.645 30.1558 185.414 28.142 184.799 27.2284C183.81 25.7554 183.121 24.1146 182.729 22.3619C182.692 22.2127 182.524 22.1382 182.393 22.1755C181.554 22.3992 180.734 22.6229 179.895 22.828C180.007 22.9399 180.119 23.0518 180.231 23.1637C181.051 20.1058 181.666 16.992 182.039 13.8409C182.058 13.4866 181.498 13.4866 181.461 13.8409Z" fill="#161616"/>
<path d="M184.072 14.5119C184.053 15.6306 184.221 16.712 184.575 17.7562C184.687 18.0545 185.097 17.9986 185.116 17.6816C185.228 16.5069 185.097 15.3696 184.724 14.2508C184.631 13.9338 184.202 14.0084 184.184 14.3254C184.128 14.9034 184.165 15.4814 184.277 16.0408C184.351 16.3951 184.873 16.2459 184.818 15.8916C184.724 15.3696 184.706 14.8475 184.743 14.3254C184.556 14.344 184.37 14.3813 184.202 14.4C184.556 15.4814 184.668 16.5629 184.575 17.6816C184.762 17.663 184.948 17.6257 185.116 17.607C184.762 16.6002 184.594 15.5747 184.631 14.5119C184.631 14.1576 184.072 14.1576 184.072 14.5119Z" fill="#161616"/>
<path d="M179.97 16.8797C179.988 16.8984 179.988 16.8984 180.007 16.917C179.988 16.8238 179.951 16.7306 179.932 16.6373C179.951 16.6187 179.97 16.5814 179.988 16.5628C180.081 16.5628 180.175 16.5628 180.268 16.5628C180.081 16.4509 180.1 15.8356 180.1 15.6864C180.119 15.3695 180.175 15.0898 180.287 14.7914C180.1 14.7914 179.932 14.7914 179.746 14.7914C179.932 15.6305 179.97 16.4509 179.82 17.3086C180.007 17.3086 180.175 17.3086 180.361 17.3086C180.063 16.5255 180.007 15.7237 180.212 14.922C180.305 14.5677 179.764 14.4185 179.671 14.7728C179.447 15.6864 179.503 16.5814 179.82 17.4578C179.914 17.6815 180.305 17.7561 180.361 17.4578C180.51 16.5068 180.492 15.5932 180.287 14.6423C180.212 14.3439 179.839 14.3999 179.746 14.6423C179.503 15.2949 179.41 16.0966 179.709 16.7492C179.858 17.0848 180.342 17.2154 180.454 16.7679C180.473 16.6746 180.454 16.5628 180.38 16.4882C180.361 16.4695 180.361 16.4695 180.342 16.4509C180.1 16.2458 179.69 16.6373 179.97 16.8797Z" fill="#161616"/>
<path d="M183.288 25.1583C183.866 25.2888 184.482 25.3634 185.041 25.0837C185.582 24.8227 186.085 24.3379 186.551 23.965C186.831 23.7412 186.439 23.3497 186.16 23.5734C185.75 23.8904 185.358 24.2633 184.91 24.5243C184.463 24.7854 183.941 24.7294 183.456 24.6175C183.083 24.543 182.934 25.0837 183.288 25.1583Z" fill="#161616"/>
<path d="M185.955 19.5275C185.936 19.5275 185.918 19.5275 185.899 19.5275C185.843 19.5088 185.806 19.5088 185.75 19.4902C185.731 19.4716 185.712 19.4716 185.712 19.4529C185.694 19.4156 185.656 19.3783 185.638 19.3224C185.638 19.341 185.638 19.341 185.638 19.3037C185.619 19.2292 185.656 19.1546 185.75 19.08C185.806 19.0614 185.843 19.0614 185.899 19.0427C185.918 19.0427 185.936 19.0427 185.955 19.0427C185.824 18.9868 185.638 19.0986 185.619 19.2292C185.582 19.397 185.675 19.5088 185.806 19.5648C186.011 19.658 186.197 19.4529 186.197 19.2478C186.197 19.0427 186.011 18.8563 185.806 18.9308C185.656 18.9868 185.563 19.1173 185.619 19.2665C185.656 19.4716 185.824 19.5834 185.955 19.5275Z" fill="#161616"/>
<path d="M187.409 18.1104C187.763 18.1104 187.763 17.551 187.409 17.551C187.055 17.551 187.055 18.1104 187.409 18.1104Z" fill="#161616"/>
<path d="M187.446 19.6766C187.484 19.7139 187.521 19.7512 187.558 19.7885C187.67 19.9004 187.838 19.9004 187.95 19.7885C188.062 19.6766 188.062 19.5088 187.95 19.3969C187.913 19.3597 187.875 19.3224 187.838 19.2851C187.726 19.1732 187.558 19.1732 187.446 19.2851C187.353 19.3783 187.353 19.5648 187.446 19.6766Z" fill="#161616"/>
<path d="M182.076 13.7286C182.934 11.5098 184.761 9.83169 187.017 9.14181C187.353 9.02993 187.222 8.48921 186.868 8.60109C184.407 9.36555 182.468 11.1742 181.536 13.5794C181.405 13.9151 181.946 14.0642 182.076 13.7286Z" fill="#161616"/>
<path d="M186.477 8.95553C187.894 13.8966 192.742 16.5443 197.665 16.4883C198.019 16.4883 198.019 15.929 197.665 15.929C193.003 15.9663 188.361 13.505 187.018 8.80637C186.906 8.47075 186.365 8.61991 186.477 8.95553Z" fill="#161616"/>
<path d="M191.903 30.2673C192.015 32.4116 191.829 34.5372 191.325 36.6441C191.306 36.756 191.344 36.9051 191.456 36.9611C193.786 38.1917 196.676 37.2967 197.888 34.9474C198.056 34.6304 197.571 34.3507 197.404 34.6677C196.341 36.7373 193.805 37.5764 191.735 36.4763C191.773 36.5882 191.829 36.6814 191.866 36.7933C192.369 34.649 192.574 32.4675 192.463 30.286C192.444 29.9131 191.885 29.9131 191.903 30.2673Z" fill="#161616"/>
<path d="M186.589 9.38437C185.955 9.64541 185.097 10.0556 184.258 10.7828C182.673 12.1439 182.021 13.7661 181.76 14.5865C181.219 14.456 180.343 14.1576 179.709 13.3745C178.403 11.7524 178.926 8.99282 180.268 7.51982C181.517 6.14005 182.561 6.96045 184.911 5.28235C186.402 4.21956 186.346 3.6229 188.006 2.54146C188.808 2.01938 189.926 1.27356 191.437 1.01252C193.711 0.620967 195.613 1.5346 198.391 2.85843C200.014 3.64155 199.659 3.64155 201.916 4.81621C205.701 6.774 206.223 6.51296 207.807 7.76221C209.448 9.04875 210.362 10.5031 211.145 11.7524C212.245 13.5237 212.264 14.139 213.438 16.6934C215.228 20.5344 215.769 20.348 216.869 23.0143C217.802 25.2704 218.734 27.4892 218.268 30.1742C217.578 34.127 214.333 36.3645 213.718 36.7747C209.597 39.4969 205.048 38.3223 203.407 37.8934C201.468 37.39 198.802 36.7001 197.18 34.3694C195.11 31.3861 195.539 26.818 198.112 22.8465C198.485 22.8837 199.137 22.9024 199.79 22.5668C201.263 21.8023 202.009 19.6208 201.188 18.1105C201.095 17.9427 200.368 16.6375 198.951 16.6188C197.552 16.6002 196.751 17.8495 196.713 17.924C195.24 17.5884 191.754 16.5629 188.994 13.3745C187.764 11.9575 187.036 10.5031 186.589 9.38437Z" fill="#1C1C1C"/>
<path d="M198.112 24.2821C198.699 24.2821 199.175 23.8063 199.175 23.2193C199.175 22.6323 198.699 22.1565 198.112 22.1565C197.525 22.1565 197.049 22.6323 197.049 23.2193C197.049 23.8063 197.525 24.2821 198.112 24.2821Z" fill="#5B5B5B"/>
<path d="M191.977 29.7454C191.977 29.9691 191.996 30.1929 192.015 30.4166C192.033 30.659 192.071 30.9014 192.089 31.1252C192.76 30.9014 193.767 30.4539 194.625 29.503C195.557 28.4402 195.986 27.0791 195.818 26.9672C195.669 26.874 195.222 27.6384 194.159 28.4775C193.32 29.1301 192.518 29.503 191.977 29.7454Z" fill="#161616" stroke="#161616" stroke-miterlimit="10"/>
<path opacity="0.19" d="M198.932 3.15674C200.424 4.83484 202.531 7.38928 204.619 10.8014C206.987 14.6424 208.777 17.5697 209.448 21.7277C209.858 24.3194 210.865 30.6403 206.856 34.3134C204.544 36.4204 201.598 36.7374 200.125 36.7747C200.89 37.1289 202.009 37.5764 203.407 37.912C205.346 38.3782 208.348 39.0867 211.574 37.8747C212.208 37.6323 216.403 35.9729 217.839 31.7031C218.79 28.8689 218.062 26.2586 217.764 25.2144C217.242 23.3685 216.31 21.7836 215.825 20.9446C215.005 19.5648 214.147 18.4461 213.382 16.7493C212.916 15.7425 212.618 14.9221 212.618 14.9221C212.226 13.8966 212.282 13.8406 212.021 13.2999C211.742 12.6846 211.555 12.5168 210.753 11.2489C209.989 10.0369 210.157 10.2048 209.877 9.8132C208.814 8.3402 207.64 7.59438 207.36 7.42657C207.155 7.29605 206.763 7.10959 205.961 6.71804C204.75 6.14002 203.836 5.72982 203.649 5.65524C202.736 5.30098 201.281 4.5738 198.932 3.15674Z" fill="#444647"/>
<path opacity="0.15" d="M214.93 19.7327C215.154 21.0192 215.378 22.8465 215.284 25.0094C215.228 26.2027 215.117 28.9249 214.222 31.1064C212.226 35.9543 206.484 37.7629 205.029 38.1731C205.607 38.285 211.331 39.3105 215.191 35.5814C217.391 33.4558 218.044 30.7149 218.081 30.5471C218.435 29.0181 218.305 27.7875 218.23 27.0977C217.857 23.6109 216.03 21.0379 214.93 19.7327Z" fill="#252626"/>
<path d="M79.5498 61.3918H77.1167V65.2848H79.5498V61.3918Z" fill="#85B4E0"/>
<path d="M79.5498 57.4988H77.1167V61.3917H79.5498V57.4988Z" fill="#0468AD"/>
<path d="M79.5498 53.6057H77.1167V57.4987H79.5498V53.6057Z" fill="#85B4E0"/>
<path d="M79.5498 49.7129H77.1167V53.6059H79.5498V49.7129Z" fill="#0468AD"/>
<path d="M79.5498 45.8198H77.1167V49.7128H79.5498V45.8198Z" fill="#85B4E0"/>
<path d="M79.5498 41.927H77.1167V45.82H79.5498V41.927Z" fill="#0468AD"/>
<path d="M77.6033 37.0608H58.1384V65.2848H77.6033V37.0608Z" fill="#D9DAE2"/>
<path d="M76.1434 44.3601V37.0608H77.6033V65.2848H58.1384V63.7646C63.0336 63.3972 67.6092 61.1935 70.9481 57.595C74.2871 53.9965 76.1428 49.2691 76.1434 44.3601Z" fill="#CFCFD9"/>
<path d="M68.844 51.6593C71.8003 51.6593 74.1969 49.2627 74.1969 46.3064C74.1969 43.3502 71.8003 40.9536 68.844 40.9536C65.8878 40.9536 63.4912 43.3502 63.4912 46.3064C63.4912 49.2627 65.8878 51.6593 68.844 51.6593Z" fill="white"/>
<path d="M70.304 45.3332C70.304 44.5269 69.6504 43.8733 68.8441 43.8733C68.0379 43.8733 67.3843 44.5269 67.3843 45.3332C67.3843 46.1394 68.0379 46.793 68.8441 46.793C69.6504 46.793 70.304 46.1394 70.304 45.3332Z" fill="#027DE5"/>
<path d="M69.7856 46.7932H67.9024C67.5068 46.7932 67.1274 46.9504 66.8477 47.2301C66.568 47.5098 66.4109 47.8891 66.4109 48.2847V51.0706C67.1636 51.4576 67.9977 51.6594 68.844 51.6594C69.6903 51.6594 70.5244 51.4576 71.2771 51.0706V48.2847C71.2771 47.8891 71.12 47.5098 70.8402 47.2301C70.5605 46.9504 70.1812 46.7932 69.7856 46.7932Z" fill="#027DE5"/>
<path d="M61.0581 41.4402H56.1919V43.3867H61.0581V41.4402Z" fill="#CCEAFF"/>
<path d="M61.0581 45.8198H56.1919V47.7663H61.0581V45.8198Z" fill="#CCEAFF"/>
<path d="M61.0581 50.1995H56.1919V52.1459H61.0581V50.1995Z" fill="#CCEAFF"/>
<path d="M61.0581 54.5791H56.1919V56.5256H61.0581V54.5791Z" fill="#CCEAFF"/>
<path d="M61.0581 58.9587H56.1919V60.9052H61.0581V58.9587Z" fill="#CCEAFF"/>
<path d="M73.2238 53.6057H64.4646V54.579H73.2238V53.6057Z" fill="#444444"/>
<path d="M73.2238 55.5522H64.4646V56.5255H73.2238V55.5522Z" fill="#444444"/>
<path d="M73.2238 57.4988H64.4646V58.472H73.2238V57.4988Z" fill="#444444"/>
<path d="M63.9778 62.8516C63.8488 62.8516 63.725 62.8003 63.6338 62.709L62.6605 61.7358L63.3486 61.0477L63.9778 61.6769L65.5802 60.0745L66.2683 60.7625L64.3218 62.709C64.2306 62.8003 64.1069 62.8516 63.9778 62.8516Z" fill="#444444"/>
<path d="M68.3573 62.8516C68.2283 62.8516 68.1045 62.8003 68.0133 62.709L67.04 61.7358L67.7281 61.0477L68.3573 61.6769L69.9598 60.0745L70.6478 60.7625L68.7014 62.709C68.6101 62.8003 68.4864 62.8516 68.3573 62.8516Z" fill="#444444"/>
<path d="M72.737 62.8516C72.6079 62.8516 72.4842 62.8003 72.3929 62.709L71.4197 61.7358L72.1078 61.0477L72.737 61.6769L74.3394 60.0745L75.0275 60.7625L73.081 62.709C72.9898 62.8003 72.866 62.8516 72.737 62.8516Z" fill="#444444"/>
<path d="M79.5497 41.4402H78.0899V37.0606C78.0899 36.9315 78.0386 36.8078 77.9474 36.7165C77.8561 36.6252 77.7323 36.574 77.6033 36.574H58.1384C58.0094 36.574 57.8856 36.6252 57.7943 36.7165C57.7031 36.8078 57.6518 36.9315 57.6518 37.0606V40.9536H56.1919C56.0629 40.9536 55.9391 41.0048 55.8479 41.0961C55.7566 41.1873 55.7053 41.3111 55.7053 41.4402V43.3867C55.7053 43.5157 55.7566 43.6395 55.8479 43.7308C55.9391 43.822 56.0629 43.8733 56.1919 43.8733H57.6518V45.3331H56.1919C56.0629 45.3331 55.9391 45.3844 55.8479 45.4757C55.7566 45.5669 55.7053 45.6907 55.7053 45.8198V47.7663C55.7053 47.8953 55.7566 48.0191 55.8479 48.1103C55.9391 48.2016 56.0629 48.2529 56.1919 48.2529H57.6518V49.7127H56.1919C56.0629 49.7127 55.9391 49.764 55.8479 49.8553C55.7566 49.9465 55.7053 50.0703 55.7053 50.1994V52.1458C55.7053 52.2749 55.7566 52.3987 55.8479 52.4899C55.9391 52.5812 56.0629 52.6325 56.1919 52.6325H57.6518V54.0923H56.1919C56.0629 54.0923 55.9391 54.1436 55.8479 54.2349C55.7566 54.3261 55.7053 54.4499 55.7053 54.5789V56.5254C55.7053 56.6545 55.7566 56.7783 55.8479 56.8695C55.9391 56.9608 56.0629 57.0121 56.1919 57.0121H57.6518V58.4719H56.1919C56.0629 58.4719 55.9391 58.5232 55.8479 58.6144C55.7566 58.7057 55.7053 58.8295 55.7053 58.9585V60.905C55.7053 61.0341 55.7566 61.1579 55.8479 61.2491C55.9391 61.3404 56.0629 61.3916 56.1919 61.3916H57.6518V65.2846C57.6518 65.4137 57.7031 65.5374 57.7943 65.6287C57.8856 65.72 58.0094 65.7712 58.1384 65.7712H79.5497C79.6788 65.7712 79.8026 65.72 79.8938 65.6287C79.9851 65.5374 80.0364 65.4137 80.0364 65.2846V41.9268C80.0364 41.7977 79.9851 41.674 79.8938 41.5827C79.8026 41.4915 79.6788 41.4402 79.5497 41.4402ZM56.6786 42.9V41.9268H60.5715V42.9H56.6786ZM56.6786 47.2796V46.3064H60.5715V47.2796H56.6786ZM56.6786 51.6592V50.686H60.5715V51.6592H56.6786ZM56.6786 56.0388V55.0656H60.5715V56.0388H56.6786ZM56.6786 59.4452H60.5715V60.4184H56.6786V59.4452ZM77.1166 64.798H58.625V61.3916H61.0582C61.1872 61.3916 61.311 61.3404 61.4022 61.2491C61.4935 61.1579 61.5448 61.0341 61.5448 60.905V58.9585C61.5448 58.8295 61.4935 58.7057 61.4022 58.6144C61.311 58.5232 61.1872 58.4719 61.0582 58.4719H58.625V57.0121H61.0582C61.1872 57.0121 61.311 56.9608 61.4022 56.8695C61.4935 56.7783 61.5448 56.6545 61.5448 56.5254V54.5789C61.5448 54.4499 61.4935 54.3261 61.4022 54.2349C61.311 54.1436 61.1872 54.0923 61.0582 54.0923H58.625V52.6325H61.0582C61.1872 52.6325 61.311 52.5812 61.4022 52.4899C61.4935 52.3987 61.5448 52.2749 61.5448 52.1458V50.1994C61.5448 50.0703 61.4935 49.9465 61.4022 49.8553C61.311 49.764 61.1872 49.7127 61.0582 49.7127H58.625V48.2529H61.0582C61.1872 48.2529 61.311 48.2016 61.4022 48.1103C61.4935 48.0191 61.5448 47.8953 61.5448 47.7663V45.8198C61.5448 45.6907 61.4935 45.5669 61.4022 45.4757C61.311 45.3844 61.1872 45.3331 61.0582 45.3331H58.625V43.8733H61.0582C61.1872 43.8733 61.311 43.822 61.4022 43.7308C61.4935 43.6395 61.5448 43.5157 61.5448 43.3867V41.4402C61.5448 41.3111 61.4935 41.1873 61.4022 41.0961C61.311 41.0048 61.1872 40.9536 61.0582 40.9536H58.625V37.5472H77.1166V64.798ZM79.0631 64.798H78.0899V61.8783H79.0631V64.798ZM79.0631 60.905H78.0899V57.9853H79.0631V60.905ZM79.0631 57.0121H78.0899V54.0923H79.0631V57.0121ZM79.0631 53.1191H78.0899V50.1994H79.0631V53.1191ZM79.0631 49.2261H78.0899V46.3064H79.0631V49.2261ZM79.0631 45.3331H78.0899V42.4134H79.0631V45.3331Z" fill="black"/>
</svg>
